<svg width="18" height="18" viewBox="0 0 18 18" fill="none" xmlns="http://www.w3.org/2000/svg">
<path d="M3.87354 10.2352H2.43591V11.6729H3.87354V10.2352Z" fill="#320E0E"/>
<path d="M6.41389 10.2352H4.97626V11.6729H6.41389V10.2352Z" fill="#320E0E"/>
<path d="M3.87354 12.8285H2.43591V14.2661H3.87354V12.8285Z" fill="#320E0E"/>
<path d="M6.41389 12.8285H4.97626V14.2661H6.41389V12.8285Z" fill="#320E0E"/>
<path d="M14.9475 12.8286H13.5099V14.2662H14.9475V12.8286Z" fill="#320E0E"/>
<path d="M14.9475 10.2354H13.5099V11.673H14.9475V10.2354Z" fill="#320E0E"/>
<path d="M7.11162 5.18799H5.67398V6.62562H7.11162V5.18799Z" fill="#320E0E"/>
<path d="M9.65198 5.18799H8.21436V6.62562H9.65198V5.18799Z" fill="#320E0E"/>
<path d="M11.7183 7.11555V6.07599H11.7162V0.613892L3.59709 3.69865V7.11551L0.284058 7.11539V17.3858L17.716 17.386V7.11555H11.7183ZM7.58879 16.409L1.26095 16.4089V8.09233L4.57399 8.09247V8.09232L7.58879 8.09245L7.58879 16.409ZM10.7393 6.07598H10.7147V16.409L8.24007 16.409V7.44118L4.574 7.44106V4.37252L10.7393 2.0301L10.7393 6.07598ZM16.7391 16.4091L11.7183 16.409V8.09245H16.7391L16.7391 16.4091Z" fill="#002E5A"/>
</svg>
