<svg width="16" height="17" viewBox="0 0 16 17" fill="none" xmlns="http://www.w3.org/2000/svg">
<path d="M13.4144 1.7H12.8V0.85C12.8 0.624566 12.7157 0.408365 12.5657 0.248959C12.4157 0.0895533 12.2122 0 12 0C11.7878 0 11.5843 0.0895533 11.4343 0.248959C11.2843 0.408365 11.2 0.624566 11.2 0.85V1.7H4.8V0.85C4.8 0.624566 4.71571 0.408365 4.56569 0.248959C4.41566 0.0895533 4.21217 0 4 0C3.78783 0 3.58434 0.0895533 3.43431 0.248959C3.28429 0.408365 3.2 0.624566 3.2 0.85V1.7H2.5856C1.89986 1.7 1.2422 1.98944 0.757305 2.50464C0.272411 3.01984 0 3.7186 0 4.4472L0 14.2528C0 14.9814 0.272411 15.6802 0.757305 16.1954C1.2422 16.7106 1.89986 17 2.5856 17H13.4144C14.1001 17 14.7578 16.7106 15.2427 16.1954C15.7276 15.6802 16 14.9814 16 14.2528V4.4472C16 3.7186 15.7276 3.01984 15.2427 2.50464C14.7578 1.98944 14.1001 1.7 13.4144 1.7ZM14.4 14.2528C14.4 14.5305 14.2962 14.7969 14.1113 14.9933C13.9265 15.1897 13.6758 15.3 13.4144 15.3H2.5856C2.3242 15.3 2.07351 15.1897 1.88868 14.9933C1.70384 14.7969 1.6 14.5305 1.6 14.2528V4.4472C1.6 4.16947 1.70384 3.90311 1.88868 3.70672C2.07351 3.51033 2.3242 3.4 2.5856 3.4H3.2V4.25C3.2 4.47543 3.28429 4.69163 3.43431 4.85104C3.58434 5.01045 3.78783 5.1 4 5.1C4.21217 5.1 4.41566 5.01045 4.56569 4.85104C4.71571 4.69163 4.8 4.47543 4.8 4.25V3.4H11.2V4.25C11.2 4.47543 11.2843 4.69163 11.4343 4.85104C11.5843 5.01045 11.7878 5.1 12 5.1C12.2122 5.1 12.4157 5.01045 12.5657 4.85104C12.7157 4.69163 12.8 4.47543 12.8 4.25V3.4H13.4144C13.6758 3.4 13.9265 3.51033 14.1113 3.70672C14.2962 3.90311 14.4 4.16947 14.4 4.4472V14.2528Z" fill="#CA234B"/>
<path d="M7.99998 9.51995C8.44181 9.51995 8.79998 9.13939 8.79998 8.66995C8.79998 8.2005 8.44181 7.81995 7.99998 7.81995C7.55815 7.81995 7.19998 8.2005 7.19998 8.66995C7.19998 9.13939 7.55815 9.51995 7.99998 9.51995Z" fill="white"/>
<path d="M7.99998 12.58C8.44181 12.58 8.79998 12.1994 8.79998 11.73C8.79998 11.2606 8.44181 10.88 7.99998 10.88C7.55815 10.88 7.19998 11.2606 7.19998 11.73C7.19998 12.1994 7.55815 12.58 7.99998 12.58Z" fill="#CA234B"/>
<path d="M5.12001 12.58C5.56184 12.58 5.92001 12.1994 5.92001 11.73C5.92001 11.2606 5.56184 10.88 5.12001 10.88C4.67818 10.88 4.32001 11.2606 4.32001 11.73C4.32001 12.1994 4.67818 12.58 5.12001 12.58Z" fill="#CA234B"/>
<path d="M10.88 9.51995C11.3218 9.51995 11.68 9.13939 11.68 8.66995C11.68 8.2005 11.3218 7.81995 10.88 7.81995C10.4381 7.81995 10.08 8.2005 10.08 8.66995C10.08 9.13939 10.4381 9.51995 10.88 9.51995Z" fill="#CA234B"/>
<path d="M10.88 12.58C11.3218 12.58 11.68 12.1994 11.68 11.73C11.68 11.2606 11.3218 10.88 10.88 10.88C10.4381 10.88 10.08 11.2606 10.08 11.73C10.08 12.1994 10.4381 12.58 10.88 12.58Z" fill="white"/>
</svg>
