<svg width="52" height="52" viewBox="0 0 52 52" fill="none" xmlns="http://www.w3.org/2000/svg">
<circle cx="26" cy="26" r="26" fill="#F0BF18"/>
<path d="M39.5001 26.33C39.5001 18.095 33.1101 12.5 26.0001 12.5C18.965 12.5 12.5 17.975 12.5 26.42C11.6 26.93 11 27.89 11 29V32C11 33.65 12.35 35 14 35H15.5V25.85C15.5 20.045 20.195 15.35 26.0001 15.35C31.8051 15.35 36.5001 20.045 36.5001 25.85V36.5H24.5V39.5H36.5001C38.1501 39.5 39.5001 38.15 39.5001 36.5V34.67C40.3851 34.205 41.0001 33.29 41.0001 32.21V28.76C41.0001 27.71 40.3851 26.795 39.5001 26.33Z" fill="white"/>
<path d="M21.5 29C22.3284 29 23 28.3284 23 27.5C23 26.6716 22.3284 26 21.5 26C20.6716 26 20 26.6716 20 27.5C20 28.3284 20.6716 29 21.5 29Z" fill="white"/>
<path d="M30.5001 29C31.3285 29 32.0001 28.3284 32.0001 27.5C32.0001 26.6716 31.3285 26 30.5001 26C29.6716 26 29.0001 26.6716 29.0001 27.5C29.0001 28.3284 29.6716 29 30.5001 29Z" fill="white"/>
<path d="M35.0001 24.545C34.2801 20.27 30.5601 17 26.075 17C21.53 17 16.64 20.765 17.03 26.675C20.735 25.16 23.525 21.86 24.32 17.84C26.285 21.785 30.3201 24.5 35.0001 24.545Z" fill="white"/>
</svg>
