<svg width="42" height="37" viewBox="0 0 42 37" fill="none" xmlns="http://www.w3.org/2000/svg">
<g clip-path="url(#clip0)">
<path d="M19.9999 7L21.2499 4.25L23.9999 3L21.2499 1.75L19.9999 -1L18.7499 1.75L15.9999 3L18.7499 4.25L19.9999 7ZM12.4999 7.49999L9.99996 2L7.49997 7.49999L2 9.99999L7.49997 12.5L9.99996 18L12.4999 12.5L17.9999 9.99999L12.4999 7.49999ZM19.9999 13L18.7499 15.75L15.9999 17L18.7499 18.25L19.9999 21L21.2499 18.25L23.9999 17L21.2499 15.75L19.9999 13Z" fill="url(#paint0_linear)"/>
</g>
<path d="M28.6666 7.66663H18C16.5333 7.66663 15.3466 8.86663 15.3466 10.3333L15.3333 31.6666C15.3333 33.1333 16.52 34.3333 17.9866 34.3333H34C35.4666 34.3333 36.6666 33.1333 36.6666 31.6666V15.6666L28.6666 7.66663ZM31.3333 29H20.6666V26.3333H31.3333V29ZM31.3333 23.6666H20.6666V21H31.3333V23.6666ZM27.3333 17V9.66663L34.6666 17H27.3333Z" fill="#9E9E9E"/>
<path d="M29.75 24.0625V26.25H31.9375L38.3892 19.7983L36.2017 17.6108L29.75 24.0625ZM40.0808 18.1067C40.3083 17.8792 40.3083 17.5117 40.0808 17.2842L38.7158 15.9192C38.4883 15.6917 38.1208 15.6917 37.8933 15.9192L36.8258 16.9867L39.0133 19.1742L40.0808 18.1067Z" fill="#343434"/>
<defs>
<linearGradient id="paint0_linear" x1="12.9999" y1="-1" x2="12.9999" y2="21" gradientUnits="userSpaceOnUse">
<stop stop-color="#FFC10E"/>
<stop offset="1" stop-color="#FEE08D"/>
</linearGradient>
<clipPath id="clip0">
<rect width="23.9999" height="24" fill="white"/>
</clipPath>
</defs>
</svg>
