<svg width="16" height="14" viewBox="0 0 16 14" fill="none" xmlns="http://www.w3.org/2000/svg">
<path d="M11.6 0C10.208 0 8.872 0.617984 8 1.59455C7.128 0.617984 5.792 0 4.4 0C1.936 0 0 1.84632 0 4.19618C0 7.08011 2.72 9.42997 6.84 13.0005L8 14L9.16 12.9929C13.28 9.42997 16 7.08011 16 4.19618C16 1.84632 14.064 0 11.6 0ZM11.0003 5.96807L10.5 6L8 6.5C4.192 3.21172 9.5 9.2049 9.5 7C9.5 5.47411 7.4 6.5 9 6.5C10.232 6.5 9.00586 5.45477 9.42986 6.5C9.84586 5.45477 9.268 7.5 10.5 7.5C12 7 11 4.47411 11 6C11 8.2049 14.8083 2.67979 11.0003 5.96807Z" fill="#F24E4F"/>
</svg>
