<svg width="16" height="16" viewBox="0 0 16 16" fill="none" xmlns="http://www.w3.org/2000/svg">
<path d="M0 10.1031C0 10.6554 0.447715 11.1031 1 11.1031H7C7.55228 11.1031 8 10.6554 8 10.1031C8 9.55084 7.55228 9.10312 7 9.10312H1C0.447715 9.10312 0 9.55084 0 10.1031ZM16 6.77187C16 6.21959 15.5523 5.77187 15 5.77187H1C0.447715 5.77187 0 6.21959 0 6.77187C0 7.32416 0.447715 7.77187 1 7.77187H15C15.5523 7.77187 16 7.32416 16 6.77187ZM1 2.4375C0.447715 2.4375 0 2.88522 0 3.4375C0 3.98978 0.447715 4.4375 1 4.4375H15C15.5523 4.4375 16 3.98978 16 3.4375C16 2.88522 15.5523 2.4375 15 2.4375H1Z" fill="#002E5A"/>
</svg>
