<svg width="16" height="17" viewBox="0 0 16 17" fill="none" xmlns="http://www.w3.org/2000/svg">
<path d="M6.72959 1.85931C6.32969 1.85931 5.9779 2.08356 5.75137 2.39578C5.56658 2.65036 5.45428 2.96738 5.41788 3.31191H1.0016V3.31356H0.999969V3.73618V6.98133H1.0016V15.1405H14.9968V6.96975L15 6.96809V3.31356H14.9968V3.31185H10.5805C10.5444 2.9679 10.433 2.65213 10.2486 2.39737C10.0226 2.08497 9.67038 1.85925 9.27042 1.85925L6.72959 1.85931ZM6.72959 2.70443H9.27042C9.3859 2.70443 9.49432 2.76125 9.59914 2.90584C9.66549 2.9976 9.68447 3.16365 9.71666 3.31191H6.28336C6.31563 3.16393 6.33437 2.99762 6.40087 2.90584C6.50601 2.76087 6.61406 2.70443 6.72959 2.70443ZM1.81307 4.16033H14.1869V6.39039L9.46099 8.30016C9.24396 7.84359 8.79462 7.5227 8.27473 7.5227H7.68717C7.18121 7.5227 6.74339 7.82689 6.51997 8.26382L1.81307 6.40025V4.16033ZM14.1869 7.29659V14.2987H1.81149V7.30315L6.36117 9.10403V9.55134C6.36117 10.3085 6.95877 10.9362 7.68717 10.9362H8.27473C9.00313 10.9362 9.60232 10.3085 9.60232 9.55134V9.15189L14.1869 7.29659ZM7.68717 8.36946H8.27632C8.57051 8.36946 8.77129 8.57714 8.7829 8.88117L8.79088 9.09245V9.55134C8.79088 9.86598 8.57723 10.0878 8.27477 10.0878H7.68717C7.38472 10.0878 7.17107 9.86588 7.17107 9.55134V9.04129L7.18694 8.85654C7.21174 8.56618 7.40374 8.36965 7.68717 8.36965V8.36946Z" fill="#002E5A"/>
<rect x="1.77777" y="4.72217" width="12.4444" height="8.5" fill="white"/>
</svg>
